<svg width="48" height="48" viewBox="0 0 48 48" fill="none" xmlns="http://www.w3.org/2000/svg">
  <!-- Background circle -->
  <circle cx="24" cy="24" r="24" fill="url(#logoGradient)"/>
  
  <!-- Custom logo pattern based on the provided image -->
  <g transform="translate(8, 8)">
    <!-- Main vertical lines pattern -->
    <rect x="2" y="4" width="2" height="24" fill="white" opacity="0.9"/>
    <rect x="6" y="4" width="2" height="24" fill="white" opacity="0.9"/>
    <rect x="10" y="4" width="2" height="24" fill="white" opacity="0.9"/>
    <rect x="14" y="4" width="2" height="24" fill="white" opacity="0.9"/>
    <rect x="18" y="4" width="2" height="24" fill="white" opacity="0.9"/>
    <rect x="22" y="4" width="2" height="24" fill="white" opacity="0.9"/>
    <rect x="26" y="4" width="2" height="24" fill="white" opacity="0.9"/>
    <rect x="30" y="4" width="2" height="24" fill="white" opacity="0.9"/>
    
    <!-- Horizontal connecting lines -->
    <rect x="2" y="8" width="30" height="2" fill="white" opacity="0.7"/>
    <rect x="2" y="14" width="30" height="2" fill="white" opacity="0.7"/>
    <rect x="2" y="20" width="30" height="2" fill="white" opacity="0.7"/>
    
    <!-- Accent dots/circles -->
    <circle cx="8" cy="6" r="1.5" fill="white"/>
    <circle cx="16" cy="6" r="1.5" fill="white"/>
    <circle cx="24" cy="6" r="1.5" fill="white"/>
    <circle cx="32" cy="6" r="1.5" fill="white"/>
  </g>
  
  <!-- Gradient definition -->
  <defs>
    <linearGradient id="logoGradient" x1="0%" y1="0%" x2="100%" y2="100%">
      <stop offset="0%" style="stop-color:#e879c6"/>
      <stop offset="50%" style="stop-color:#a855f7"/>
      <stop offset="100%" style="stop-color:#78c7ff"/>
    </linearGradient>
  </defs>
</svg>
